<svg width="52" height="45" viewBox="0 0 52 45" fill="none" xmlns="http://www.w3.org/2000/svg">
<path d="M25.7117 42.9159C38.9415 42.9159 49.6665 33.7231 49.6665 22.3832C49.6665 11.0433 38.9415 1.85046 25.7117 1.85046C12.4818 1.85046 1.75684 11.0433 1.75684 22.3832C1.75684 33.7231 12.4818 42.9159 25.7117 42.9159Z" stroke="#FF267E" stroke-width="3" stroke-linecap="round" stroke-linejoin="round"/>
<path fill-rule="evenodd" clip-rule="evenodd" d="M25.7117 1.85046C38.9418 1.85046 49.6665 11.043 49.6665 22.382C49.6665 33.721 38.9418 42.9135 25.7117 42.9135C12.4815 42.9135 1.75684 33.7237 1.75684 22.3832C1.75684 11.0426 12.4819 1.85164 25.7117 1.85164" fill="#000055"/>
<path d="M23.8148 31.9237V24.3564H16.1021V20.5726H23.8148V12.9712H27.6535V20.5726H35.3318V24.3564H27.6535V31.9237H23.8148Z" fill="#FF267E"/>
</svg>
