<svg width="515" height="90" viewBox="0 0 515 90" fill="none" xmlns="http://www.w3.org/2000/svg">
<path d="M514.286 0H0V90H514.286V0Z" fill="#FF267E"/>
<path d="M166.421 43.2579H135.788V34.5482H172.901V22.645H117.82V67.645H135.788V55.4515H166.421V43.2579Z" fill="#000055"/>
<path d="M263.623 52.5482L247.423 22.645H227.099L253.608 67.645H273.638L300.147 22.645H280.118L263.623 52.5482Z" fill="#000055"/>
<path d="M356.995 44.7095C361.119 43.2579 363.77 39.1934 363.77 35.1289C363.77 27.8708 357.29 22.645 344.919 22.645H304.86V67.645H345.802C359.057 67.645 365.243 62.4192 365.243 54.8708C365.243 50.516 362.592 46.7418 356.995 44.7095ZM322.238 33.387H341.973C343.741 33.0966 345.508 34.5482 345.802 36.5805C346.097 38.3224 344.624 40.0644 342.562 40.3547C342.268 40.3547 342.268 40.3547 341.973 40.3547H322.238V33.387ZM343.446 56.9031H322.238V49.9353H343.446C345.213 49.645 346.981 51.0966 347.275 53.1289C347.57 54.8708 346.097 56.6128 344.035 56.9031C344.035 56.9031 343.741 56.9031 343.446 56.9031Z" fill="#000055"/>
<path d="M391.458 49.9353H422.091V40.0644H391.458V34.5482H425.332V22.645H373.785V67.645H426.215V55.4515H391.458V49.9353Z" fill="#000055"/>
<path d="M433.579 22.645V34.5482H453.314V67.645H471.282V34.5482H491.311V22.645H433.579Z" fill="#000055"/>
<path d="M193.52 22.645L167.01 67.645H185.861L189.396 60.9676H217.673L221.208 67.645H240.943L214.433 22.645H193.52ZM195.876 49.3547L203.829 34.8386L211.782 49.3547H195.876Z" fill="#000055"/>
<path d="M22.9751 40.3549L38.8808 67.6452H58.9103L43.2991 40.3549H22.9751Z" fill="#000055"/>
<path d="M74.8159 40.3549L58.9102 67.6452H79.2342L94.8454 40.3549H74.8159Z" fill="#000055"/>
<path d="M58.9105 12.7742L43.2993 40.3548H74.8163L58.9105 12.7742Z" fill="#000055"/>
</svg>
